# xmcd
#
# Track frame offsets: 
#        150
#        11604
#        24404
#        37016
#        50387
#        60098
#        72154
#        82767
#        94228
#        107719
#        120726
#        132165
#        146706
#        158926
#        171008
#        181225
#        194347
#        205286
#        216771
#        227387
#        238475
#        251593
#        261219
#        270884
#        282082
#        292384
#        306004
#        316624
#
# Disc length: 4380 seconds
#
# Revision: 2
# Processed by: cddbd v1.5.2PL0 Copyright (c) Steve Scherf et al.
# Submitted via: ExactAudioCopy v0.99pb4
#
DISCID=8a111a1c
DTITLE=Various Artist - Dootone Rock 'n' Rhythm And Blues
DYEAR=2002
DGENRE=Swing
TTITLE0=Roy Milton - Baby I'm Gone
TTITLE1=Roy Milton - Cry Some Baby
TTITLE2=Roy Milton - Fools Are Getting Scarcer
TTITLE3=Roy Milton - I Can't Go On
TTITLE4=Roy Milton - You Got Me Reeling And Rocking
TTITLE5=Roy Milton - Nothing Left
TTITLE6=Mickey Champion and The Roy Milton Orchestra - Bam-A-Lam
TTITLE7=Mickey Champion and The Roy Milton Orchestra - I'm A Woman
TTITLE8=Roy Milton - I Never Would Have Made It
TTITLE9=Roy Milton - I Want To Go Home
TTITLE10=Lorenzo Holden and Ernie Freeman - Groovy Boogie
TTITLE11=Lorenzo Holden and Ernie Freeman - Just Blues
TTITLE12=Helen Humes and Her Orchestra - Woojamacooja
TTITLE13=Helen Humes - All I Ask Is Your Love
TTITLE14=Helen Humes - Real Fine Daddy
TTITLE15=Helen Humes - I'll Surrender Anytime
TTITLE16=Chuck Higgins and His Band - The Itch
TTITLE17=Chuck Higgins - Looking For My Baby
TTITLE18=Chuck Higgins - Wet Back Hop
TTITLE19=Chuck Higgins - Tonky Honk
TTITLE20=Chuck Higgins (Vocal by Frank Dunn) - Don't You Know I Love Y
TTITLE20=ou Baby
TTITLE21=Chuck Higgins - Hey Dig
TTITLE22=Chuck Higgins - Here I'm Is
TTITLE23=Chuck Higgins and His Band - Gamblin' Woman
TTITLE24=Chuck Higgins and His Band - Eye Ballin'
TTITLE25=Claude McLin - So Fine
TTITLE26=Claude McLin - You're Lookin' Good
TTITLE27=Joe Houston - Shindig
EXTD=
EXTT0=
EXTT1=
EXTT2=
EXTT3=
EXTT4=
EXTT5=
EXTT6=
EXTT7=
EXTT8=
EXTT9=
EXTT10=
EXTT11=
EXTT12=
EXTT13=
EXTT14=
EXTT15=
EXTT16=
EXTT17=
EXTT18=
EXTT19=
EXTT20=
EXTT21=
EXTT22=
EXTT23=
EXTT24=
EXTT25=
EXTT26=
EXTT27=
PLAYORDER=
